<svg aria-hidden="true" style="position: absolute; width: 0; height: 0; overflow: hidden;" version="1.1" xmlns="http://www.w3.org/2000/svg" xmlns:xlink="http://www.w3.org/1999/xlink">
<defs>
<symbol id="linkedin" viewBox="0 0 32 32">
<path d="M7.409 31.111h-6.45v-20.771h6.45v20.771zM4.18 7.507c-2.062 0-3.736-1.709-3.736-3.771 0-0.991 0.394-1.941 1.094-2.641s1.651-1.094 2.641-1.094c0.991 0 1.941 0.394 2.641 1.094s1.094 1.651 1.094 2.641c0 2.062-1.673 3.771-3.736 3.771zM31.549 31.111h-6.436v-10.111c0-2.41-0.049-5.5-3.353-5.5-3.353 0-3.868 2.618-3.868 5.327v10.284h-6.443v-20.771h6.186v2.833h0.090c0.861-1.632 2.964-3.354 6.102-3.354 6.528 0 7.728 4.299 7.728 9.882v11.41h-0.006z"></path>
</symbol>
<symbol id="twitter" viewBox="0 0 38 32">
<path d="M38.045 1.065c-1.579 1.114-3.327 1.965-5.176 2.522-0.993-1.142-2.312-1.951-3.78-2.318s-3.013-0.275-4.426 0.265c-1.414 0.539-2.627 1.5-3.477 2.752s-1.295 2.734-1.274 4.247v1.649c-2.897 0.075-5.768-0.567-8.356-1.87s-4.815-3.226-6.48-5.597c0 0-6.594 14.836 8.242 21.43-3.395 2.305-7.439 3.46-11.539 3.297 14.836 8.242 32.97 0 32.97-18.958-0.002-0.459-0.046-0.917-0.132-1.368 1.683-1.659 2.87-3.754 3.429-6.050z"></path>
</symbol>
<symbol id="facebook" viewBox="0 0 18 32">
<path d="M17.778 1.185h-4.444c-1.965 0-3.849 0.78-5.238 2.17s-2.17 3.273-2.17 5.238v4.444h-4.444v5.926h4.444v11.852h5.926v-11.852h4.444l1.482-5.926h-5.926v-4.444c0-0.393 0.156-0.77 0.434-1.048s0.655-0.434 1.048-0.434h4.444v-5.926z"></path>
</symbol>
<symbol id="phone" viewBox="0 0 32 32">
<path d="M27.419 20.853l-4.201-0.48c-0.116-0.014-0.25-0.023-0.385-0.023-0.909 0-1.732 0.369-2.328 0.964l-3.045 3.045c-4.718-2.435-8.467-6.185-10.835-10.764l-0.065-0.139 3.063-3.056c0.596-0.596 0.964-1.419 0.964-2.328 0-0.136-0.008-0.27-0.024-0.401l0.002 0.016-0.48-4.169c-0.199-1.655-1.595-2.926-3.287-2.926-0.001 0-0.003 0-0.004 0h-2.861c-1.87-0.005-3.424 1.55-3.31 3.417 0.878 14.126 12.176 25.408 26.286 26.286 1.867 0.114 3.424-1.44 3.424-3.31v-2.862c0-0.005 0-0.010 0-0.016 0-1.681-1.266-3.067-2.897-3.256l-0.015-0.001z"></path>
</symbol>
</defs>
</svg>
