<svg width="1222" height="1210" viewBox="0 0 1222 1210" fill="none" xmlns="http://www.w3.org/2000/svg">
<g filter="url(#filter0_f_135_146)">
<path d="M-328.435 391.033C-256.585 349.49 -167.429 326.254 -106.195 322.454C-63.8463 319.826 -23.1181 325.016 -2.47236 342.597C17.2672 359.407 26.1472 384.112 38.4924 405.463C47.926 421.778 53.9599 438.703 57.717 458.04C61.3539 476.758 70.9914 492.278 75.4646 510.584C95.7975 593.793 127.27 707.856 293.082 679.809C338.825 672.072 381.877 673.398 419.987 675.341C471.693 677.977 527.383 677.805 576.835 682.743C611.06 686.16 643.685 693.467 668.936 705.056C690.529 714.966 701.885 728.427 712.112 746.115C723.748 766.24 735.384 786.365 747.021 806.49C755.406 820.992 755.565 834.662 782.723 833.783C840.797 831.903 908.571 839.077 898.956 887.749" stroke="url(#paint0_linear_135_146)" stroke-opacity="0.25" stroke-width="205" stroke-linecap="round"/>
</g>
<defs>
<filter id="filter0_f_135_146" x="-649.953" y="0.311646" width="1871.31" height="1208.96" filterUnits="userSpaceOnUse" color-interpolation-filters="sRGB">
<feFlood flood-opacity="0" result="BackgroundImageFix"/>
<feBlend mode="normal" in="SourceGraphic" in2="BackgroundImageFix" result="shape"/>
<feGaussianBlur stdDeviation="109.5" result="effect1_foregroundBlur_135_146"/>
</filter>
<linearGradient id="paint0_linear_135_146" x1="-421.779" y1="216.026" x2="335.631" y2="1126.81" gradientUnits="userSpaceOnUse">
<stop stop-color="#00C5EB"/>
<stop offset="0.447917" stop-color="#3D99F1" stop-opacity="0.62"/>
<stop offset="1" stop-color="#B544FE"/>
</linearGradient>
</defs>
</svg>
